<svg width="138" height="30" viewBox="0 0 138 30" fill="none" xmlns="http://www.w3.org/2000/svg">
<g clip-path="url(#clip0_18_10)">
<path d="M0 30V0H138V30H0Z" fill="#9F9F9F"/>
<path d="M44.4942 12.5349C43.8912 13.3393 42.8822 14.7377 42.2681 15.5545C41.9564 15.9699 41.3934 16.724 43.2599 16.724C45.2347 16.724 53.0868 16.724 53.0868 16.724C53.0868 16.724 54.6706 14.6016 55.9984 12.8265C57.8044 10.4117 56.1547 5.38721 49.6978 5.38721C43.9187 5.38721 24.2694 5.38721 24.2694 5.38721L19.8604 11.288C19.8604 11.288 42.7173 11.288 43.8904 11.288C45.1035 11.288 45.0871 11.7429 44.4942 12.5349ZM37.275 18.1797C35.4085 18.1797 35.9715 17.424 36.2832 17.0087C36.8973 16.1919 37.9228 14.8081 38.5258 14.0037C39.1194 13.2117 39.1351 12.7569 37.9204 12.7569C36.7481 12.7569 26.9305 12.7569 26.9305 12.7569L18.0757 24.6112C18.0757 24.6112 33.8907 24.6112 39.6699 24.6112C46.802 24.6112 50.7728 19.8326 51.997 18.1805C51.997 18.1797 39.249 18.1797 37.275 18.1797ZM51.3225 24.6112H63.9903L68.7927 18.1789L56.1264 18.1805C56.1225 18.1797 51.3225 24.6112 51.3225 24.6112ZM84.007 5.38721L79.1481 11.8883H73.4946L78.3511 5.38721H65.6872L57.2147 16.724H88.1993L96.6694 5.38721H84.007ZM69.6439 24.6112H82.307L87.1118 18.1805H74.4486C74.4439 18.1797 69.6439 24.6112 69.6439 24.6112ZM0 20.7167V22.0827H17.6422L18.6614 20.7167H0ZM20.5577 18.1797H0V19.5441H19.5362L20.5577 18.1797ZM0 24.6112H15.7522L16.7667 23.2529H0V24.6112ZM119.409 22.0819H138V20.7159H120.43L119.409 22.0819ZM117.521 24.6112H138V23.2529H118.535L117.521 24.6112ZM122.323 18.1797L121.305 19.5457H138V18.1797H122.323ZM105.736 16.724L114.208 5.38721H100.796C100.791 5.38721 92.3178 16.724 92.3178 16.724H105.736ZM91.2318 18.1797C91.2318 18.1797 90.306 19.4258 89.8561 20.026C88.266 22.1422 89.6724 24.6112 94.8626 24.6112C100.859 24.6112 115.2 24.6112 115.2 24.6112L120.005 18.1805L91.2318 18.1797Z" fill="#767474"/>
</g>
<defs>
<clipPath id="clip0_18_10">
<rect width="138" height="30" fill="white"/>
</clipPath>
</defs>
</svg>
