<svg width="123" height="62" viewBox="0 0 123 62" fill="none" xmlns="http://www.w3.org/2000/svg">
<path fill-rule="evenodd" clip-rule="evenodd" d="M99.15 15.38L84.38 15.29V5.36C84.38 3.88 83.77 2.54 82.81 1.58C81.84 0.61 80.51 0 79.02 0H23.46C21.98 0 20.64 0.61 19.68 1.57C18.71 2.54 18.11 3.87 18.11 5.35C18.11 6.17 18.75 6.8 19.56 6.8C20.37 6.8 21.01 6.16 21.01 5.35C21.01 4.68 21.28 4.05 21.74 3.62C22.19 3.17 22.8 2.89 23.47 2.89H79.03C79.7 2.89 80.3 3.16 80.76 3.62C81.21 4.07 81.49 4.68 81.49 5.35V50.85H70.02C69.2 50.85 68.57 51.49 68.57 52.3C68.57 53.09 69.21 53.75 70.02 53.75H82.93C83.75 53.75 84.38 53.11 84.38 52.3V50.63H93.16C93.83 35.49 115.53 33.41 117.74 50.63H122.52C123.15 47.27 122.92 43.35 122.04 39.03C121.02 33.99 121.32 34.97 116.61 33.16L107.01 28.86L99.15 15.38ZM18.4 31.46C19.21 31.46 19.86 32.12 19.86 32.92C19.86 33.73 19.2 34.38 18.4 34.38H8.02C7.21 34.38 6.56 33.72 6.56 32.92C6.56 32.11 7.22 31.46 8.02 31.46H18.4ZM18.4 21.89C19.21 21.89 19.86 22.55 19.86 23.35C19.86 24.16 19.2 24.81 18.4 24.81H5.27C4.46 24.81 3.81 24.15 3.81 23.35C3.81 22.54 4.47 21.89 5.27 21.89H18.4ZM18.4 12.32C19.21 12.32 19.86 12.98 19.86 13.78C19.86 14.59 19.2 15.24 18.4 15.24H1.46C0.66 15.25 0 14.59 0 13.79C0 12.98 0.66 12.33 1.46 12.33H18.4V12.32ZM40.11 50.86C40.9 50.86 41.56 51.5 41.56 52.31C41.56 53.1 40.92 53.76 40.11 53.76H23.49C22.01 53.76 20.67 53.12 19.71 52.13C18.74 51.13 18.14 49.74 18.14 48.29V42.48C18.14 41.69 18.78 41.03 19.59 41.03C20.41 41.03 21.04 41.67 21.04 42.48V48.29C21.04 48.99 21.34 49.65 21.8 50.14C22.25 50.59 22.83 50.9 23.5 50.9L40.11 50.86ZM54.88 41.35C49.43 41.35 45.04 45.77 45.04 51.19C45.04 56.64 49.46 61.03 54.88 61.03C60.33 61.03 64.72 56.61 64.72 51.19C64.72 45.74 60.3 41.35 54.88 41.35ZM54.88 47.41C52.79 47.41 51.1 49.11 51.1 51.19C51.1 53.28 52.8 54.97 54.88 54.97C56.97 54.97 58.66 53.27 58.66 51.19C58.67 49.1 56.97 47.41 54.88 47.41ZM105.45 41.35C100 41.35 95.61 45.77 95.61 51.19C95.61 56.64 100.03 61.03 105.45 61.03C110.9 61.03 115.29 56.61 115.29 51.19C115.29 45.74 110.87 41.35 105.45 41.35ZM105.45 47.41C103.36 47.41 101.67 49.11 101.67 51.19C101.67 53.28 103.37 54.97 105.45 54.97C107.54 54.97 109.23 53.27 109.23 51.19C109.23 49.1 107.54 47.41 105.45 47.41ZM95.37 19.53L88.04 19.44V28.88H100.33L95.37 19.53Z" fill="black"/>
<rect x="22.5844" y="16" width="56.8831" height="20" fill="#FFCC00"/>
<path d="M38.5368 24.3843C38.2178 24.9205 37.6841 25.8528 37.3592 26.3974C37.1943 26.6743 36.8965 27.177 37.8838 27.177C38.9285 27.177 43.0822 27.177 43.0822 27.177C43.0822 27.177 43.92 25.7621 44.6224 24.5787C45.5777 22.9688 44.705 19.6191 41.2894 19.6191C38.2323 19.6191 27.8382 19.6191 27.8382 19.6191L25.5059 23.553C25.5059 23.553 37.5968 23.553 38.2174 23.553C38.8591 23.553 38.8504 23.8562 38.5368 24.3843ZM34.7179 28.1475C33.7306 28.1475 34.0284 27.6437 34.1933 27.3668C34.5181 26.8223 35.0606 25.8998 35.3796 25.3635C35.6936 24.8355 35.7019 24.5323 35.0594 24.5323C34.4392 24.5323 29.2459 24.5323 29.2459 24.5323L24.5618 32.4351C24.5618 32.4351 32.9277 32.4351 35.9848 32.4351C39.7576 32.4351 41.8581 29.2494 42.5056 28.148C42.5056 28.148 35.7622 28.1475 34.7179 28.1475ZM42.1488 32.4351H48.85L51.3904 28.147L44.6901 28.148C44.688 28.1475 42.1488 32.4351 42.1488 32.4351ZM59.4385 19.6191L56.8682 23.9532H53.8776L56.4466 19.6191H49.7476L45.2658 27.177H61.6562L66.1367 19.6191H59.4385ZM51.8406 32.4351H58.5392L61.0809 28.148H54.3822C54.3798 28.1475 51.8406 32.4351 51.8406 32.4351ZM70.933 27.177L75.4144 19.6191H68.3195C68.317 19.6191 63.8348 27.177 63.8348 27.177H70.933ZM63.2603 28.1475C63.2603 28.1475 62.7706 28.9782 62.5326 29.3783C61.6915 30.7892 62.4354 32.4351 65.181 32.4351C68.3527 32.4351 75.9394 32.4351 75.9394 32.4351L78.481 28.148L63.2603 28.1475Z" fill="#D40410"/>
</svg>
