<svg width="114" height="36" viewBox="0 0 114 36" fill="none" xmlns="http://www.w3.org/2000/svg">
<path d="M13.812 3.15002H5.00808C4.44372 3.15002 3.87936 3.60002 3.76649 4.16252L0.267482 26.6625C0.15461 27.1125 0.493224 27.45 0.944709 27.45H5.12095C5.6853 27.45 6.24966 27 6.36253 26.4375L7.2655 20.3625C7.37837 19.8 7.82986 19.35 8.50709 19.35H11.3289C17.0853 19.35 20.4714 16.5375 21.3744 11.025C21.713 8.66252 21.3744 6.75002 20.2457 5.40002C19.0041 3.93752 16.7467 3.15002 13.812 3.15002ZM14.8279 11.3625C14.3764 14.5125 11.8932 14.5125 9.6358 14.5125H8.28134L9.18431 8.66252C9.18431 8.32502 9.52293 8.10002 9.86154 8.10002H10.4259C12.0061 8.10002 13.4734 8.10002 14.2635 9.00002C14.8279 9.45002 15.0536 10.2375 14.8279 11.3625Z" fill="#9F9F9F"/>
<path d="M39.9982 11.25H35.822C35.4834 11.25 35.1448 11.475 35.1448 11.8125L34.919 12.9375L34.5804 12.4875C33.6774 11.1375 31.6458 10.6875 29.6141 10.6875C24.9863 10.6875 21.0359 14.175 20.2458 19.125C19.7943 21.6 20.3586 23.9625 21.8259 25.5375C23.0675 27 24.9863 27.675 27.1309 27.675C30.8557 27.675 33.0002 25.3125 33.0002 25.3125L32.7745 26.4375C32.6616 26.8875 33.0002 27.3375 33.4517 27.3375H37.2893C37.8537 27.3375 38.418 26.8875 38.5309 26.325L40.7883 11.925C40.9012 11.7 40.4497 11.25 39.9982 11.25ZM34.2418 19.35C33.7903 21.7125 31.9844 23.4 29.5012 23.4C28.2596 23.4 27.3566 23.0625 26.6794 22.275C26.0022 21.4875 25.7764 20.475 26.0022 19.35C26.3408 16.9875 28.3725 15.3 30.7428 15.3C31.9844 15.3 32.8873 15.75 33.5646 16.425C34.1289 17.2125 34.3547 18.225 34.2418 19.35Z" fill="#9F9F9F"/>
<path d="M62.4596 11.25H58.2833C57.8319 11.25 57.4932 11.475 57.2675 11.8125L51.3982 20.3625L48.915 12.15C48.8022 11.5875 48.2378 11.25 47.7863 11.25H43.6101C43.1586 11.25 42.7071 11.7 42.9328 12.2625L47.5606 25.875L43.1586 31.95C42.82 32.4 43.1586 33.075 43.7229 33.075H47.8992C48.3507 33.075 48.6893 32.85 48.915 32.5125L63.0239 12.2625C63.3626 11.925 63.0239 11.25 62.4596 11.25Z" fill="#9F9F9F"/>
<path d="M76.4556 3.15002H67.6516C67.0873 3.15002 66.5229 3.60002 66.41 4.16252L62.911 26.55C62.7982 27 63.1368 27.3375 63.5883 27.3375H68.1031C68.5546 27.3375 68.8932 27 68.8932 26.6625L69.9091 20.25C70.0219 19.6875 70.4734 19.2375 71.1506 19.2375H73.9724C79.7289 19.2375 83.115 16.425 84.018 10.9125C84.3566 8.55002 84.018 6.63752 82.8893 5.28752C81.5348 3.93752 79.3902 3.15002 76.4556 3.15002ZM77.4714 11.3625C77.0199 14.5125 74.5368 14.5125 72.2794 14.5125H70.9249L71.8279 8.66252C71.8279 8.32502 72.1665 8.10002 72.5051 8.10002H73.0695C74.6497 8.10002 76.117 8.10002 76.9071 9.00002C77.4714 9.45002 77.5843 10.2375 77.4714 11.3625Z" fill="#767474"/>
<path d="M102.642 11.25H98.4655C98.1269 11.25 97.7883 11.475 97.7883 11.8125L97.5626 12.9375L97.224 12.4875C96.321 11.1375 94.2893 10.6875 92.2576 10.6875C87.6299 10.6875 83.6794 14.175 82.8893 19.125C82.4378 21.6 83.0022 23.9625 84.4695 25.5375C85.7111 27 87.6299 27.675 89.7745 27.675C93.4992 27.675 95.6438 25.3125 95.6438 25.3125L95.418 26.4375C95.3052 26.8875 95.6438 27.3375 96.0953 27.3375H99.9329C100.497 27.3375 101.062 26.8875 101.174 26.325L103.432 11.925C103.432 11.7 103.093 11.25 102.642 11.25ZM96.7725 19.35C96.321 21.7125 94.5151 23.4 92.0319 23.4C90.7903 23.4 89.8873 23.0625 89.2101 22.275C88.5329 21.4875 88.3071 20.475 88.5329 19.35C88.8715 16.9875 90.9032 15.3 93.2735 15.3C94.5151 15.3 95.418 15.75 96.0953 16.425C96.7725 17.2125 96.9982 18.225 96.7725 19.35Z" fill="#767474"/>
<path d="M107.608 3.71252L103.996 26.55C103.883 27 104.222 27.3375 104.673 27.3375H108.285C108.85 27.3375 109.414 26.8875 109.527 26.325L113.139 3.93752C113.252 3.48752 112.913 3.15002 112.462 3.15002H108.398C107.947 3.15002 107.721 3.37502 107.608 3.71252Z" fill="#767474"/>
</svg>
