<svg width="60" height="40" viewBox="0 0 60 40" fill="none" xmlns="http://www.w3.org/2000/svg">
<g clip-path="url(#clip0_12_324)">
<path opacity="0.07" d="M55.2632 1.05273H4.73684C2.05263 1.05273 0 3.10537 0 5.78958V34.2106C0 36.8948 2.21053 38.9475 4.73684 38.9475H55.2632C57.9474 38.9475 60 36.8948 60 34.2106V5.78958C60 3.10537 57.7895 1.05273 55.2632 1.05273Z" fill="black"/>
<path d="M55.2631 2.63159C56.9999 2.63159 58.421 4.05264 58.421 5.78949V34.2105C58.421 35.9474 56.9999 37.3684 55.2631 37.3684H4.73675C2.99991 37.3684 1.57886 35.9474 1.57886 34.2105V5.78949C1.57886 4.05264 2.99991 2.63159 4.73675 2.63159H55.2631Z" fill="white"/>
<g clip-path="url(#clip1_12_324)">
<path d="M25.9334 26.7838H22.207L24.5377 12.2634H28.2639L25.9334 26.7838Z" fill="#00579F"/>
<path d="M39.4416 12.6182C38.7066 12.3244 37.5409 12 36.0994 12C32.4195 12 29.8282 13.9771 29.8123 16.8039C29.7818 18.8894 31.6676 20.0478 33.0781 20.7432C34.5198 21.4537 35.0099 21.9175 35.0099 22.5509C34.9952 23.5237 33.8449 23.9721 32.7721 23.9721C31.2843 23.9721 30.4872 23.7409 29.2758 23.1997L28.7851 22.9677L28.2637 26.2272C29.1376 26.6284 30.7478 26.9844 32.4195 27C36.3295 27 38.8749 25.0535 38.9051 22.0411C38.92 20.3882 37.9242 19.1216 35.7772 18.0866C34.4739 17.4223 33.6758 16.9743 33.6758 16.2945C33.6911 15.6765 34.3509 15.0435 35.8221 15.0435C37.0335 15.0125 37.9235 15.3059 38.5978 15.5995L38.9348 15.7537L39.4416 12.6182Z" fill="#00579F"/>
<path d="M44.3941 21.6398C44.701 20.8056 45.8819 17.5771 45.8819 17.5771C45.8664 17.6081 46.1881 16.7275 46.3721 16.1869L46.6325 17.4381C46.6325 17.4381 47.3382 20.9138 47.4914 21.6398C46.9091 21.6398 45.1302 21.6398 44.3941 21.6398ZM48.9938 12.2634H46.1115C45.2227 12.2634 44.5474 12.5258 44.1639 13.4682L38.6289 26.7836H42.5388C42.5388 26.7836 43.1825 24.9915 43.3209 24.6055C43.7498 24.6055 47.5534 24.6055 48.1052 24.6055C48.2122 25.1153 48.5498 26.7836 48.5498 26.7836H52L48.9938 12.2634Z" fill="#00579F"/>
<path d="M19.0945 12.2634L15.4452 22.1649L15.0464 20.1568C14.3717 17.8397 12.2558 15.3221 9.89453 14.0704L13.2372 26.7684H17.1776L23.0348 12.2634H19.0945Z" fill="#00579F"/>
<path d="M12.0566 12.2634H6.06133L6 12.5568C10.6767 13.7618 13.774 16.6663 15.0465 20.1574L13.7432 13.484C13.5287 12.5566 12.8693 12.294 12.0566 12.2634Z" fill="#FAA61A"/>
</g>
</g>
<defs>
<clipPath id="clip0_12_324">
<rect width="60" height="40" fill="white"/>
</clipPath>
<clipPath id="clip1_12_324">
<rect width="46" height="15" fill="white" transform="translate(6 12)"/>
</clipPath>
</defs>
</svg>
